<svg width="240" height="240" viewBox="0 0 240 240" fill="none" xmlns="http://www.w3.org/2000/svg">
<g id="Graphics/Upload file" clip-path="url(#clip0_330_10869)">
<path id="Vector" opacity="0.25" d="M13.1751 153.565C13.5098 154.495 13.9132 155.416 14.3165 156.337C20.3888 169.799 32.4684 181.199 46.9232 184.825C64.699 189.258 82.0564 181.767 98.4044 175.595C107.575 172.132 116.787 174.165 124.768 179.499C134.813 186.157 144.567 195.85 156.84 198.308C177.213 202.321 198.885 197.314 213.649 184.042C220.503 177.894 225.823 170.212 228.811 161.8C231.702 153.191 232.201 143.929 230.171 135.077C228.21 126.216 223.788 117.756 217.279 110.9C209.538 102.678 199.165 96.6907 187.957 93.3236C168.09 87.3609 148.134 94.2271 130.273 81.3769C122.616 75.8599 116.413 68.6845 108.113 64.0901C100.037 59.6048 90.8785 56.937 81.6036 56.514C46.5208 54.7592 21.4582 82.3047 12.6983 113.715C9.02473 126.888 8.15517 140.658 13.1065 153.574L13.1751 153.565Z" fill="#DDE3EE"/>
<rect id="Rectangle 1523" x="107.273" y="104.216" width="95.6641" height="55.1285" rx="3.24285" fill="white"/>
<path id="Rectangle 1525" d="M29.1599 155.16L31.4399 152.16H45.3599L59.7599 152.52L61.6799 154.08L68.8799 190.08H32.1599L29.1599 155.16Z" fill="white"/>
<path id="Rectangle 1527" d="M98.3999 158.88L105.48 155.88L111.96 151.44L119.28 165.48L124.08 167.04L135.72 169.68L152.16 173.16L157.8 171.48L159.48 173.16L161.64 174.84L164.04 178.08L162.96 181.08H138.6H121.44L114.48 180.48L110.52 177.96L107.28 174.72L98.3999 158.88Z" fill="white"/>
<path id="Rectangle 1526" d="M89.2801 136.32L90.4801 132.96L92.2801 129.72L99.7201 133.32L104.4 136.68L111.72 150.96L110.16 152.88L98.4001 159.36L103.92 168.96L102.36 174.12L101.76 179.28L102.24 189.84H68.6401L64.3201 167.52L78.8401 165L85.3201 160.8L88.5601 155.04L89.2801 146.88V136.32Z" fill="#6E6B86"/>
<path id="Rectangle 1528" d="M144.36 159.36L165.96 159.84L166.32 172.08H172.32V181.2H163.2L163.8 177.96L162.6 176.88L162.48 175.8L160.32 173.76L157.8 171.36L150.72 173.04L144.36 171.36V159.36Z" fill="white"/>
<path id="Rectangle 1529" d="M76.0799 87.1201H92.3999L96.7199 91.6801L98.8799 100.08L95.3999 120.72L91.6799 130.8L89.1599 136.56V149.4L87.9599 157.44L83.5199 162.6L73.4399 166.32L64.5599 167.4L62.9999 161.64L61.6799 153.72L58.7999 152.04H50.3999L51.9599 147.36L57.3599 140.64L61.6799 136.56L62.9999 130.8L63.8399 124.56V116.4L64.5599 108.36L66.3599 98.6401L69.7199 93.2401L76.0799 87.1201Z" fill="#EDEBFD"/>
<path id="Vector 639" d="M76.7998 87.1201C66.4798 95.2801 66.9118 95.8081 64.7998 108.48C63.731 114.893 63.5186 120.429 63.6835 124.727C63.8939 130.208 62.4352 135.765 58.5023 139.588C54.3827 143.593 50.274 148.235 50.8798 152.4" stroke="#EDEBFD" stroke-width="0.96"/>
<path id="Rectangle 1530" d="M99.3602 101.881L100.08 105.841L99.6002 115.201L96.1202 122.161L94.6803 122.401L99.3602 101.881Z" fill="white"/>
<g id="Group 69">
<path id="Vector 628" d="M216.721 190.433C216.986 190.433 217.201 190.218 217.201 189.953C217.201 189.688 216.986 189.473 216.721 189.473V190.433ZM32.2839 190.433H216.721V189.473H32.2839V190.433Z" fill="#475161"/>
<path id="Vector 629" d="M68.7659 190.155L62.0391 155.212C61.7085 153.495 60.2056 152.254 58.4567 152.254H33.0147C30.8771 152.254 29.1975 154.083 29.3798 156.213L32.2839 190.155" stroke="#475161" stroke-width="0.96"/>
<path id="Vector 630" d="M102.411 190.155C101.667 185.224 100.951 174.103 104.032 169.077M104.032 169.077L107.013 173.886C109.138 177.312 112.444 179.925 116.406 180.675C117.347 180.853 118.228 180.987 118.929 181.035M104.032 169.077L98.3742 159.151C98.3121 159.042 98.3603 158.905 98.4776 158.861C101.882 157.586 108.936 154.413 111.632 151.241" stroke="#475161" stroke-width="0.96"/>
<path id="Vector 631" d="M50.3223 151.943L50.4965 148.285C50.711 143.78 52.8983 139.891 56.062 136.676C58.9623 133.729 61.5292 129.286 60.9629 120.224C60.4764 112.441 63.1248 100.767 64.5097 95.9026C65.8947 91.0343 73.2807 86.6774 80.724 86.6807C93.7333 86.6864 95.9696 85.8752 99.3704 102.692C101.853 114.969 97.2671 121.282 94.4722 123.39C94.0202 123.731 93.6582 124.191 93.5262 124.742L92.4462 129.246C92.3497 129.648 92.5709 130.057 92.9578 130.204C96.7388 131.633 103.521 134.757 105.045 137.654C106.667 140.735 109.504 146.64 110.72 149.207L119.07 164.958C119.431 165.638 120.07 166.126 120.821 166.295L150.731 173.015C151.338 173.152 151.971 173.109 152.555 172.894C153.967 172.372 155.963 171.659 157.407 171.444C158.089 171.343 158.635 171.862 158.758 172.54L158.847 173.031C158.866 173.137 158.969 173.205 159.073 173.181V173.181C159.985 172.975 160.814 173.76 160.659 174.682L160.639 174.802C160.622 174.903 160.707 174.991 160.808 174.978L161.109 174.938C162.052 174.814 162.759 175.781 162.354 176.641V176.641C162.325 176.704 162.349 176.78 162.409 176.814L163.375 177.364C163.808 177.611 163.997 178.135 163.823 178.601L162.91 181.035H160.681" stroke="#475161" stroke-width="0.96"/>
<path id="Vector 632" d="M64.5095 167.151C102.613 165.631 82.1425 141.107 92.5104 129.776" stroke="#475161" stroke-width="0.96"/>
<path id="Vector 633" d="M99.1935 101.655C98.2477 108.31 95.8081 120.846 93.8813 123.996" stroke="#475161" stroke-width="0.96"/>
<path id="Vector 635" d="M216.721 181.515C216.986 181.515 217.201 181.3 217.201 181.035C217.201 180.77 216.986 180.555 216.721 180.555L216.721 181.515ZM101.802 181.515L216.721 181.515L216.721 180.555L101.802 180.555L101.802 181.515Z" fill="#475161"/>
<path id="Vector 636" d="M107.274 142.323V108.679C107.274 106.216 109.271 104.22 111.733 104.22H198.48C200.942 104.22 202.939 106.216 202.939 108.679V154.889C202.939 157.352 200.942 159.348 198.48 159.348H116.395" stroke="#475161" stroke-width="0.96"/>
<path id="Vector 637" d="M166.051 159.444V171.2C166.051 171.759 166.505 172.213 167.064 172.213H171.523C172.083 172.213 172.537 172.667 172.537 173.226V180.932" stroke="#475161" stroke-width="0.96"/>
<path id="Vector 638" d="M144.365 159.448V171.406" stroke="#475161" stroke-width="0.96"/>
</g>
<g id="Group 68">
<g id="Shape">
<path fill-rule="evenodd" clip-rule="evenodd" d="M136.593 92.3167H131.915H136.593Z" fill="white"/>
<path d="M128.535 92.3167C120.374 92.3167 113.758 85.8512 113.758 77.8756C113.758 69.9 120.374 63.4345 128.535 63.4345C128.882 63.4345 129.227 63.4462 129.568 63.4692C129.331 62.1501 129.207 60.7917 129.207 59.4045C129.207 46.7919 139.431 36.5674 152.044 36.5674C162.113 36.5674 170.66 43.084 173.698 52.1298C174.418 52.0546 175.149 52.016 175.889 52.016C187.203 52.016 196.375 61.0376 196.375 72.1664C196.375 82.739 188.097 91.4619 177.568 92.3021V92.3167H168.082M136.593 92.3167H131.915" stroke="#475161" stroke-width="0.96" stroke-linecap="round"/>
</g>
<path id="Shape_2" fill-rule="evenodd" clip-rule="evenodd" d="M145.067 41.4995C145.067 63.143 164.559 80.9776 189.658 83.3855C186.513 87.2532 181.655 89.877 176.122 90.2893V90.3019H131.049C125.581 90.3019 116.445 87.9978 116.445 77.9083C116.445 67.8188 123.548 65.5147 131.049 65.5147C131.368 65.5147 131.685 65.5247 131.998 65.5445C131.781 64.4124 131.742 63.2456 131.667 62.056C131.157 54.0206 134.663 43.8936 145.079 40.5977C145.071 40.8981 145.067 41.1984 145.067 41.4995ZM152.122 75.3624C150.081 75.3624 148.427 76.9974 148.427 79.0143C148.427 81.0311 150.081 82.6661 152.122 82.6661C154.163 82.6661 155.818 81.0311 155.818 79.0143C155.818 76.9974 154.163 75.3624 152.122 75.3624Z" fill="#DDE3EE"/>
<path id="Oval" d="M158.761 43.2842C163.133 44.4412 166.585 47.8602 167.788 52.2129" stroke="#6E6B86" stroke-width="0.96" stroke-linecap="round"/>
<path id="Oval_2" d="M172.866 31.866C173.979 31.866 174.881 30.9638 174.881 29.851C174.881 28.7381 173.979 27.8359 172.866 27.8359C171.753 27.8359 170.851 28.7381 170.851 29.851C170.851 30.9638 171.753 31.866 172.866 31.866Z" stroke="#6E6B86" stroke-width="0.96"/>
<path id="Oval_3" d="M193.688 42.6131C194.801 42.6131 195.703 41.7109 195.703 40.598C195.703 39.4852 194.801 38.583 193.688 38.583C192.575 38.583 191.673 39.4852 191.673 40.598C191.673 41.7109 192.575 42.6131 193.688 42.6131Z" fill="#6E6B86"/>
<path id="Line-5" d="M178.076 37.0781L183.69 42.6922M183.776 37.0781L178.162 42.6922L183.776 37.0781Z" stroke="#6E6B86" stroke-width="0.96" stroke-linecap="round" stroke-linejoin="round"/>
<path id="Line-4" d="M114.701 49.0576L118.731 53.0877M118.731 49.0576L114.701 53.0877L118.731 49.0576Z" stroke="#6E6B86" stroke-width="0.96" stroke-linecap="round" stroke-linejoin="round"/>
<path id="Oval_4" d="M123.833 44.6277C124.946 44.6277 125.848 43.7256 125.848 42.6127C125.848 41.4998 124.946 40.5977 123.833 40.5977C122.72 40.5977 121.818 41.4998 121.818 42.6127C121.818 43.7256 122.72 44.6277 123.833 44.6277Z" fill="#6E6B86"/>
<g id="Union">
<path fill-rule="evenodd" clip-rule="evenodd" d="M163.824 87.432C164.098 87.432 164.269 87.1356 164.132 86.8984L153.349 68.2218C153.212 67.9847 152.87 67.9847 152.733 68.2218L141.95 86.8984C141.813 87.1356 141.984 87.432 142.258 87.432H146.993C147.189 87.432 147.349 87.5913 147.349 87.7878V99.3502C147.349 99.5467 147.508 99.706 147.704 99.706H158.377C158.573 99.706 158.732 99.5467 158.732 99.3502V87.7878C158.732 87.5913 158.892 87.432 159.088 87.432H163.824Z" fill="white"/>
<path d="M164.132 86.8984L163.716 87.1384L164.132 86.8984ZM153.349 68.2218L152.933 68.4618L153.349 68.2218ZM152.733 68.2218L152.317 67.9818L152.733 68.2218ZM152.933 68.4618L163.716 87.1384L164.548 86.6584L153.765 67.9818L152.933 68.4618ZM142.366 87.1384L153.149 68.4618L152.317 67.9818L141.534 86.6584L142.366 87.1384ZM146.993 86.952H142.258V87.912H146.993V86.952ZM147.829 99.3502V87.7878H146.869V99.3502H147.829ZM158.377 99.226H147.704V100.186H158.377V99.226ZM158.252 87.7878V99.3502H159.212V87.7878H158.252ZM163.824 86.952H159.088V87.912H163.824V86.952ZM159.212 87.7878C159.212 87.8564 159.157 87.912 159.088 87.912V86.952C158.627 86.952 158.252 87.3262 158.252 87.7878H159.212ZM158.377 100.186C158.838 100.186 159.212 99.8118 159.212 99.3502H158.252C158.252 99.2816 158.308 99.226 158.377 99.226V100.186ZM146.869 99.3502C146.869 99.8118 147.243 100.186 147.704 100.186V99.226C147.773 99.226 147.829 99.2816 147.829 99.3502H146.869ZM146.993 87.912C146.924 87.912 146.869 87.8564 146.869 87.7878H147.829C147.829 87.3262 147.454 86.952 146.993 86.952V87.912ZM141.534 86.6584C141.213 87.2156 141.615 87.912 142.258 87.912V86.952C142.354 86.952 142.414 87.0556 142.366 87.1384L141.534 86.6584ZM163.716 87.1384C163.669 87.0556 163.728 86.952 163.824 86.952V87.912C164.467 87.912 164.869 87.2156 164.548 86.6584L163.716 87.1384ZM153.765 67.9818C153.443 67.4247 152.639 67.4247 152.317 67.9818L153.149 68.4618C153.101 68.5447 152.981 68.5447 152.933 68.4618L153.765 67.9818Z" fill="#475161"/>
</g>
</g>
<g id="Shape_3">
<path fill-rule="evenodd" clip-rule="evenodd" d="M161.211 119.852L164.034 140.443L164.288 142.509C164.369 143.174 163.896 143.78 163.231 143.862L145.457 146.044C144.792 146.126 144.186 145.652 144.104 144.987L141.368 122.701C141.327 122.368 141.564 122.066 141.896 122.025C141.899 122.024 141.901 122.024 141.903 122.024L143.377 121.859M144.569 121.724L145.962 121.568L144.569 121.724Z" fill="white"/>
<path d="M161.686 119.787C161.65 119.524 161.408 119.341 161.146 119.377C160.883 119.413 160.699 119.655 160.735 119.917L161.686 119.787ZM164.034 140.443L164.51 140.384L164.509 140.378L164.034 140.443ZM164.288 142.509L164.764 142.45L164.288 142.509ZM163.231 143.862L163.289 144.338L163.231 143.862ZM145.457 146.044L145.516 146.52L145.457 146.044ZM144.104 144.987L144.581 144.928L144.104 144.987ZM141.903 122.024L141.956 122.501L141.903 122.024ZM143.431 122.336C143.694 122.306 143.884 122.068 143.854 121.805C143.825 121.542 143.587 121.352 143.324 121.382L143.431 122.336ZM144.516 121.247C144.252 121.277 144.063 121.515 144.092 121.778C144.122 122.041 144.359 122.231 144.623 122.201L144.516 121.247ZM146.015 122.045C146.279 122.016 146.468 121.778 146.439 121.515C146.409 121.251 146.171 121.062 145.908 121.091L146.015 122.045ZM160.735 119.917L163.558 140.508L164.509 140.378L161.686 119.787L160.735 119.917ZM163.557 140.501L163.811 142.567L164.764 142.45L164.51 140.384L163.557 140.501ZM163.811 142.567C163.861 142.969 163.574 143.336 163.172 143.385L163.289 144.338C164.218 144.224 164.878 143.379 164.764 142.45L163.811 142.567ZM163.172 143.385L145.399 145.567L145.516 146.52L163.289 144.338L163.172 143.385ZM145.399 145.567C144.996 145.617 144.63 145.331 144.581 144.928L143.628 145.045C143.742 145.974 144.587 146.634 145.516 146.52L145.399 145.567ZM144.581 144.928L141.844 122.643L140.891 122.76L143.628 145.045L144.581 144.928ZM141.844 122.643C141.836 122.573 141.885 122.51 141.955 122.501L141.838 121.548C141.242 121.621 140.818 122.164 140.891 122.76L141.844 122.643ZM141.955 122.501C141.955 122.501 141.956 122.501 141.956 122.501L141.849 121.547C141.845 121.547 141.842 121.548 141.838 121.548L141.955 122.501ZM141.956 122.501L143.431 122.336L143.324 121.382L141.849 121.547L141.956 122.501ZM144.623 122.201L146.015 122.045L145.908 121.091L144.516 121.247L144.623 122.201Z" fill="#475161"/>
</g>
<path id="Rectangle" fill-rule="evenodd" clip-rule="evenodd" d="M160.442 121.145L162.997 139.805L163.227 141.677C163.301 142.28 162.878 142.829 162.282 142.902L146.366 144.856C145.77 144.929 145.227 144.5 145.153 143.897L142.663 123.625C142.631 123.362 142.818 123.122 143.081 123.09L145.176 122.833" fill="#6E6B86"/>
<path id="Rectangle_2" d="M147.36 116.64C147.36 116.375 147.575 116.16 147.84 116.16H162.077C162.204 116.16 162.326 116.21 162.415 116.299L166.658 120.517C166.749 120.607 166.8 120.729 166.8 120.857V140.16C166.8 140.425 166.585 140.64 166.32 140.64H147.84C147.575 140.64 147.36 140.425 147.36 140.16V116.64Z" fill="white" stroke="#475161" stroke-width="0.96"/>
<path id="Shape_4" d="M162.24 116.4V119.833C162.24 120.323 162.623 120.72 163.096 120.72H165.36" stroke="#475161" stroke-width="0.96" stroke-linecap="round" stroke-linejoin="round"/>
<path id="lines" d="M150.48 136.32H158.316M150.48 120.72H158.316H150.48ZM150.48 124.39H163.44H150.48ZM150.48 128.367H163.44H150.48ZM150.48 132.343H163.44H150.48Z" stroke="#6E6B86" stroke-width="0.96" stroke-linecap="round" stroke-linejoin="round"/>
</g>
<defs>
<clipPath id="clip0_330_10869">
<rect width="240" height="240" fill="white"/>
</clipPath>
</defs>
</svg>
